<svg width="61" height="61" viewBox="0 0 61 61" fill="none" xmlns="http://www.w3.org/2000/svg">
<circle cx="30.0697" cy="30.0697" r="30.0697" fill="white"/>
<mask id="mask0_2223_379" style="mask-type:alpha" maskUnits="userSpaceOnUse" x="0" y="0" width="61" height="61">
<path d="M0 0V60.1395H39.1087C39.1087 60.0672 39.1087 59.9949 39.1087 59.9949C39.5408 51.0318 35.5075 44.4541 33.995 43.3698C32.5546 42.2133 30.3218 42.4302 29.7456 43.2253C29.1695 43.9481 33.1307 46.0443 34.2111 46.6949C35.2914 47.3454 38.1004 49.4416 34.5712 48.4296C31.0421 47.49 28.8814 48.4296 28.3772 48.5742C27.873 48.7188 26.1445 49.803 25.7844 49.6585C25.4242 49.4416 26.9367 48.8633 26.9367 48.8633C26.9367 48.8633 25.3522 48.8633 24.4879 48.7911C23.6237 48.7188 22.1112 48.7911 23.2635 48.2851C24.4159 47.7791 27.0808 48.1405 26.8647 47.9237C26.5766 47.7068 25.7844 48.0682 26.2165 47.5623C26.6486 47.0563 29.7456 47.5622 30.3218 47.0563C30.898 46.6226 29.2415 45.8997 29.2415 45.8997C27.801 45.6829 23.4796 45.0323 23.2635 42.3579C23.0475 39.6111 28.6653 39.322 29.9617 38.6714C31.1861 38.0209 32.9867 38.6714 28.4492 36.0692C23.9118 33.4671 22.2552 29.3469 22.2552 27.3953C22.2552 25.4436 21.7511 25.6605 21.535 26.1665C21.3189 26.7447 20.5267 27.7567 19.9505 27.829C18.7981 27.9735 19.2302 28.7687 18.9421 29.3469C18.654 29.9252 18.2219 29.9252 18.0058 29.5638C17.9338 29.3469 18.582 28.4795 18.7261 28.0458C18.8701 27.6844 18.51 27.7567 18.51 27.7567C18.51 27.7567 17.8618 28.7687 17.2136 29.3469C16.5654 29.8529 16.8535 29.9252 15.9892 29.8529C15.1249 29.7806 16.2053 28.9132 16.4933 28.9132C16.7094 28.9132 17.7898 27.2507 17.7898 27.2507C17.7898 27.2507 16.8535 27.3953 16.2773 27.3953C15.7011 27.323 15.485 28.5518 14.4767 27.6844C13.4684 26.8893 14.9809 26.7447 15.485 26.817C15.8451 26.817 17.1416 26.6002 17.1416 26.6002C17.1416 26.6002 17.2136 26.311 16.7094 26.0219C16.2053 25.6605 15.485 26.1665 15.413 24.9377C15.2689 23.7811 16.3493 24.8654 16.3493 24.8654C16.3493 24.8654 17.7898 26.3833 18.8701 26.3833C19.8784 26.3833 19.5183 25.0822 19.0142 24.3594C18.2219 23.1306 18.582 23.2029 18.582 22.5523C18.582 21.9018 19.7344 21.1789 19.3743 20.4561C19.0142 19.8056 18.9421 19.3719 18.7261 18.7213C18.51 18.0708 16.9255 16.6251 16.4213 15.1072C15.9172 13.7338 16.5654 12.505 16.7814 11.7099C16.9975 10.9147 17.6457 7.80657 18.2939 6.43319C18.9421 5.05981 19.7344 5.49351 19.7344 5.49351C26.6486 9.8305 25.4242 15.5409 25.3522 16.1191C25.3522 16.6974 27.0808 17.0588 27.0808 17.0588L28.9534 15.9023C28.9534 15.9023 29.0254 15.2517 28.8814 15.1072C28.7373 14.9626 28.2332 14.1675 27.3689 14.6012C26.7927 14.8903 26.1445 14.2398 26.6486 14.0229C27.2248 13.8061 28.5933 14.2398 28.5212 14.0229C28.4492 13.7338 27.5129 12.8664 26.8647 12.8664C26.1445 12.7941 26.7207 11.7099 27.1528 12.2881C27.5849 12.7941 28.5933 13.8061 28.8093 13.4446C28.9534 13.0832 29.2415 12.0713 28.7373 11.493C28.0891 10.8425 29.3135 10.5533 29.4576 11.1316C29.6016 11.7099 29.6016 13.4446 29.6016 13.4446C29.6016 13.4446 29.8177 13.8783 30.0337 13.6615C30.1778 13.3724 30.3218 11.9267 30.6099 11.7821C30.898 11.6376 31.4742 11.9267 31.1141 12.505C30.6819 13.1555 30.6819 13.9506 30.754 14.3843C30.898 14.818 31.4742 15.1072 31.9063 15.83C32.3385 16.5528 31.9784 16.842 31.3302 17.8539C30.6819 18.8659 28.8814 18.8659 27.729 20.0947C26.5766 21.3235 29.9617 22.0463 29.9617 22.0463C38.1724 27.6121 37.02 35.7801 37.092 36.2138C37.164 36.6475 37.7402 37.5149 38.5325 37.0812C39.2527 36.7198 40.045 35.2018 42.6378 35.3464C45.2307 35.491 45.1586 37.5872 44.5104 39.0328C43.8622 40.4785 43.142 42.5024 43.286 42.7193C43.3581 42.9361 44.5104 43.153 45.1586 42.4302C45.8789 41.7796 46.311 41.7073 46.167 42.0687C46.0229 42.4302 45.3027 43.0084 45.3027 43.0084C45.3027 43.0084 48.0396 41.9242 48.8318 41.7073C49.6241 41.4905 49.264 42.7916 48.6878 42.7916C48.1116 42.7916 46.7432 42.9361 46.7432 42.9361C46.7432 42.9361 45.7348 42.647 48.9759 43.8035C52.2169 44.9601 52.2169 45.8997 51.7128 46.0443C51.2086 46.1889 47.4634 44.0204 46.5271 43.659C45.5908 43.2976 44.8705 44.1649 45.8789 44.2372C46.9592 44.3095 47.4634 45.2492 46.4551 45.1769C45.4467 45.1046 42.9259 45.8997 41.8456 45.3938C40.7652 44.8878 41.1974 43.3698 41.1253 42.8639C41.0533 42.2856 39.7569 42.4302 39.7569 42.7193C39.7569 43.0084 41.7735 46.0443 41.7735 46.0443C43.9342 51.6824 43.9342 56.4531 43.214 60.1395H60.1395V0H0Z" fill="#EE3337"/>
</mask>
<g mask="url(#mask0_2223_379)">
<rect width="60.1395" height="60.1395" rx="30.0697" fill="#EE3337"/>
</g>
</svg>
